<svg width="20" height="24" viewBox="0 0 20 24" fill="none" xmlns="http://www.w3.org/2000/svg">
<path d="M14.8476 5.61719C12.7482 5.61719 11.8609 6.64817 10.3988 6.64817C8.89915 6.64817 7.7557 5.62344 5.93742 5.62344C4.15664 5.62344 2.25713 6.74189 1.0512 8.64765C-0.642112 11.3344 -0.354688 16.3956 2.38835 20.707C3.36934 22.2504 4.6815 23.9812 6.3998 23.9999C6.4123 23.9999 6.41855 23.9999 6.43105 23.9999C7.92441 23.9999 8.36804 22.9939 10.4238 22.9814C10.4363 22.9814 10.4425 22.9814 10.455 22.9814C12.4795 22.9814 12.8856 23.9937 14.3727 23.9937C14.3852 23.9937 14.3915 23.9937 14.404 23.9937C16.1223 23.9749 17.5032 22.0567 18.4842 20.5196C19.1902 19.4136 19.4527 18.8575 19.9963 17.6078C16.0285 16.0582 15.3912 10.2722 19.3152 8.05405C18.1155 6.5107 16.4347 5.61719 14.8476 5.61719Z" fill="black"/>
<path d="M14.3851 0C13.1354 0.0874772 11.6795 0.906014 10.8235 1.97449C10.0487 2.94298 9.41138 4.38011 9.66131 5.7735C9.69255 5.7735 9.7238 5.7735 9.76129 5.7735C11.0922 5.7735 12.4543 4.94871 13.2479 3.89274C14.0164 2.88675 14.5975 1.46212 14.3851 0Z" fill="black"/>
</svg>
