<svg width="8" height="12" viewBox="0 0 8 12" fill="none" xmlns="http://www.w3.org/2000/svg">
<path d="M0.331022 0.336722C0.119004 0.550006 -4.87884e-07 0.838522 -4.74738e-07 1.13926C-4.61593e-07 1.43999 0.119004 1.72851 0.331022 1.94179L4.36077 6.02846L0.331023 10.0582C0.119004 10.2715 -6.2944e-08 10.56 -4.97985e-08 10.8607C-3.66529e-08 11.1615 0.119005 11.45 0.331023 11.6633C0.436847 11.77 0.562749 11.8547 0.701468 11.9125C0.840186 11.9702 0.988974 12 1.13925 12C1.28952 12 1.43831 11.9702 1.57703 11.9125C1.71575 11.8547 1.84165 11.77 1.94748 11.6633L6.77407 6.83669C6.88076 6.73086 6.96545 6.60496 7.02324 6.46624C7.08104 6.32752 7.11079 6.17873 7.11079 6.02846C7.11079 5.87818 7.08104 5.7294 7.02324 5.59068C6.96545 5.45196 6.88076 5.32606 6.77407 5.22023L1.94748 0.336722C1.84165 0.230027 1.71575 0.145341 1.57703 0.0875482C1.43831 0.0297555 1.28952 -5.63669e-08 1.13925 -4.97982e-08C0.988974 -4.32294e-08 0.840185 0.0297556 0.701467 0.0875482C0.562749 0.145341 0.436847 0.230027 0.331022 0.336722Z" fill="#5D3EBC"/>
</svg>
