<svg width="8" height="12" viewBox="0 0 8 12" fill="none" xmlns="http://www.w3.org/2000/svg">
<path d="M6.77976 11.6633C6.99178 11.45 7.11078 11.1615 7.11078 10.8607C7.11078 10.56 6.99178 10.2715 6.77976 10.0582L2.75001 5.97154L6.77976 1.94179C6.99177 1.72851 7.11078 1.43999 7.11078 1.13926C7.11078 0.838521 6.99177 0.550005 6.77976 0.336721C6.67393 0.230026 6.54803 0.145339 6.40931 0.0875466C6.27059 0.0297542 6.1218 1.29688e-07 5.97153 1.49395e-07C5.82125 1.69101e-07 5.67247 0.0297543 5.53375 0.0875467C5.39503 0.145339 5.26913 0.230026 5.1633 0.336721L0.336711 5.16331C0.230015 5.26914 0.145329 5.39504 0.0875366 5.53376C0.0297439 5.67248 -1.06807e-05 5.82127 -1.0661e-05 5.97154C-1.06413e-05 6.12182 0.029744 6.27061 0.0875367 6.40932C0.145329 6.54804 0.230015 6.67394 0.336711 6.77977L5.1633 11.6633C5.26913 11.77 5.39503 11.8547 5.53375 11.9125C5.67247 11.9702 5.82126 12 5.97153 12C6.12181 12 6.27059 11.9702 6.40931 11.9125C6.54803 11.8547 6.67393 11.77 6.77976 11.6633Z" fill="#5D3EBC"/>
</svg>
