<svg width="13" height="16" viewBox="0 0 13 16" fill="none" xmlns="http://www.w3.org/2000/svg">
<path d="M12 4H9.6V3.2C9.6 2.35131 9.26286 1.53737 8.66274 0.937258C8.06263 0.337142 7.24869 0 6.4 0C5.55131 0 4.73737 0.337142 4.13726 0.937258C3.53714 1.53737 3.2 2.35131 3.2 3.2V4H0.8C0.587827 4 0.384344 4.08429 0.234315 4.23431C0.0842856 4.38434 0 4.58783 0 4.8V13.6C0 14.2365 0.252856 14.847 0.702944 15.2971C1.15303 15.7471 1.76348 16 2.4 16H10.4C11.0365 16 11.647 15.7471 12.0971 15.2971C12.5471 14.847 12.8 14.2365 12.8 13.6V4.8C12.8 4.58783 12.7157 4.38434 12.5657 4.23431C12.4157 4.08429 12.2122 4 12 4ZM4.8 3.2C4.8 2.77565 4.96857 2.36869 5.26863 2.06863C5.56869 1.76857 5.97565 1.6 6.4 1.6C6.82435 1.6 7.23131 1.76857 7.53137 2.06863C7.83143 2.36869 8 2.77565 8 3.2V4H4.8V3.2ZM11.2 13.6C11.2 13.8122 11.1157 14.0157 10.9657 14.1657C10.8157 14.3157 10.6122 14.4 10.4 14.4H2.4C2.18783 14.4 1.98434 14.3157 1.83431 14.1657C1.68429 14.0157 1.6 13.8122 1.6 13.6V5.6H3.2V6.4C3.2 6.61217 3.28429 6.81566 3.43431 6.96569C3.58434 7.11571 3.78783 7.2 4 7.2C4.21217 7.2 4.41566 7.11571 4.56569 6.96569C4.71571 6.81566 4.8 6.61217 4.8 6.4V5.6H8V6.4C8 6.61217 8.08429 6.81566 8.23431 6.96569C8.38434 7.11571 8.58783 7.2 8.8 7.2C9.01217 7.2 9.21566 7.11571 9.36569 6.96569C9.51571 6.81566 9.6 6.61217 9.6 6.4V5.6H11.2V13.6Z" fill="#5C4D9F"/>
</svg>
