<svg width="21" height="24" viewBox="0 0 21 24" fill="none" xmlns="http://www.w3.org/2000/svg">
<path d="M19.3635 10.4814C20.2861 11.1687 20.2861 12.7166 19.4212 13.4039L16.9871 14.7823L13.3799 11.9427L16.996 9.15723L19.3635 10.4814Z" fill="#FFC801"/>
<path d="M17.0059 14.769L17.0054 14.7684H17.0049L13.3766 11.9443L13.3754 11.9432L13.3749 11.9437L13.376 11.9449L13.3749 11.9437L13.3733 11.9421L13.3605 11.9518L0 22.1277V22.5529C0 23.1147 0.131471 23.7139 0.580067 23.9219C1.17115 24.1961 2.03368 23.6603 2.03368 23.6603L17.0059 14.769Z" fill="#F93647"/>
<path d="M13.3605 11.9517L0 22.1276V1.54785L13.3573 11.9474L13.3605 11.9517Z" fill="#00D3FF"/>
<path d="M0.000976562 1.34207V1.54799L13.3582 11.9475L13.3615 11.9518L13.3743 11.9421L13.3754 11.9416L13.3807 11.9373L16.9968 9.17283C16.9968 9.17283 5.36706 2.21995 1.99567 0.214724C1.84901 0.127487 1.49754 -0.0937891 1.07612 0.0442074C0.571201 0.209589 0.000976562 0.810141 0.000976562 1.34207Z" fill="#00EF77"/>
</svg>
