<svg width="19" height="16" viewBox="0 0 19 16" fill="none" xmlns="http://www.w3.org/2000/svg">
<path d="M16.3918 1.69499C15.4356 0.736312 14.1681 0.151192 12.8182 0.0453197C11.4683 -0.0605522 10.1251 0.319805 9.03116 1.11769C7.88346 0.264034 6.45495 -0.123053 5.03327 0.0343756C3.6116 0.191804 2.30238 0.882054 1.36926 1.96613C0.436134 3.0502 -0.0515814 4.44756 0.00432562 5.87683C0.0602326 7.3061 0.65561 8.6611 1.67056 9.66897L7.2722 15.2796C7.74127 15.7413 8.37303 16 9.03116 16C9.6893 16 10.3211 15.7413 10.7901 15.2796L16.3918 9.66897C17.445 8.60932 18.0361 7.17599 18.0361 5.68198C18.0361 4.18796 17.445 2.75464 16.3918 1.69499ZM15.1199 8.42416L9.51826 14.0258C9.45452 14.0902 9.37865 14.1413 9.29504 14.1761C9.21144 14.211 9.12175 14.2289 9.03116 14.2289C8.94058 14.2289 8.85089 14.211 8.76728 14.1761C8.68367 14.1413 8.60781 14.0902 8.54406 14.0258L2.94243 8.3971C2.23502 7.67398 1.83889 6.7026 1.83889 5.691C1.83889 4.6794 2.23502 3.70802 2.94243 2.9849C3.6633 2.27318 4.63552 1.8741 5.64853 1.8741C6.66154 1.8741 7.63377 2.27318 8.35464 2.9849C8.43849 3.06944 8.53826 3.13655 8.64818 3.18234C8.7581 3.22814 8.876 3.25172 8.99508 3.25172C9.11416 3.25172 9.23206 3.22814 9.34198 3.18234C9.4519 3.13655 9.55167 3.06944 9.63552 2.9849C10.3564 2.27318 11.3286 1.8741 12.3416 1.8741C13.3546 1.8741 14.3269 2.27318 15.0477 2.9849C15.7649 3.69854 16.174 4.66466 16.1875 5.67628C16.201 6.68791 15.8177 7.66459 15.1199 8.3971V8.42416Z" fill="#FFD10D"/>
</svg>
