<svg width="20" height="20" viewBox="0 0 20 20" fill="none" xmlns="http://www.w3.org/2000/svg">
<path d="M9.99997 4.7981C7.17739 4.7981 4.83868 7.09648 4.83868 9.95939C4.83868 12.8223 7.13707 15.1207 9.99997 15.1207C12.8629 15.1207 15.1613 12.782 15.1613 9.95939C15.1613 7.1368 12.8226 4.7981 9.99997 4.7981ZM9.99997 13.2658C8.18546 13.2658 6.69352 11.7739 6.69352 9.95939C6.69352 8.14487 8.18546 6.65293 9.99997 6.65293C11.8145 6.65293 13.3064 8.14487 13.3064 9.95939C13.3064 11.7739 11.8145 13.2658 9.99997 13.2658Z" fill="#494178"/>
<path d="M15.3629 5.84701C16.0087 5.84701 16.5323 5.32347 16.5323 4.67766C16.5323 4.03184 16.0087 3.5083 15.3629 3.5083C14.7171 3.5083 14.1935 4.03184 14.1935 4.67766C14.1935 5.32347 14.7171 5.84701 15.3629 5.84701Z" fill="#494178"/>
<path d="M18.3871 1.65323C17.3387 0.564516 15.8468 0 14.1532 0H5.84677C2.33871 0 0 2.33871 0 5.84677V14.1129C0 15.8468 0.564516 17.3387 1.69355 18.4274C2.78226 19.4758 4.23387 20 5.8871 20H14.1129C15.8468 20 17.2984 19.4355 18.3468 18.4274C19.4355 17.379 20 15.8871 20 14.1532V5.84677C20 4.15323 19.4355 2.70161 18.3871 1.65323ZM18.2258 14.1532C18.2258 15.4032 17.7823 16.4113 17.0564 17.0968C16.3306 17.7823 15.3226 18.1452 14.1129 18.1452H5.8871C4.67742 18.1452 3.66935 17.7823 2.94355 17.0968C2.21774 16.371 1.85484 15.3629 1.85484 14.1129V5.84677C1.85484 4.6371 2.21774 3.62903 2.94355 2.90323C3.62903 2.21774 4.67742 1.85484 5.8871 1.85484H14.1935C15.4032 1.85484 16.4113 2.21774 17.1371 2.94355C17.8226 3.66935 18.2258 4.67742 18.2258 5.84677V14.1532Z" fill="#494178"/>
</svg>
