<svg width="17" height="21" viewBox="0 0 17 21" fill="none" xmlns="http://www.w3.org/2000/svg">
<path d="M14.4853 2.48528C12.894 0.893983 10.7357 -1.67671e-08 8.48528 0C6.23484 1.67671e-08 4.07658 0.893983 2.48528 2.48528C0.893982 4.07658 1.67671e-08 6.23485 0 8.48528C-1.67671e-08 10.7357 0.893982 12.894 2.48528 14.4853L7.75528 19.7653C7.84824 19.859 7.95885 19.9334 8.0807 19.9842C8.20256 20.0349 8.33327 20.0611 8.46528 20.0611C8.59729 20.0611 8.728 20.0349 8.84986 19.9842C8.97172 19.9334 9.08232 19.859 9.17528 19.7653L14.4853 14.4353C16.0699 12.8506 16.9602 10.7013 16.9602 8.46028C16.9602 6.21923 16.0699 4.06996 14.4853 2.48528ZM13.0553 13.0053L8.48528 17.5953L3.91528 13.0053C3.01243 12.1016 2.39776 10.9505 2.14898 9.69757C1.90019 8.44462 2.02847 7.14603 2.51759 5.96596C3.0067 4.7859 3.8347 3.77733 4.89691 3.06776C5.95913 2.35819 7.20787 1.97946 8.48528 1.97946C9.7627 1.97946 11.0114 2.35819 12.0737 3.06776C13.1359 3.77733 13.9639 4.7859 14.453 5.96596C14.9421 7.14603 15.0704 8.44462 14.8216 9.69757C14.5728 10.9505 13.9581 12.1016 13.0553 13.0053ZM5.48528 5.41528C4.678 6.22505 4.22468 7.32185 4.22468 8.46528C4.22468 9.60872 4.678 10.7055 5.48528 11.5153C6.08504 12.1161 6.84887 12.5264 7.68093 12.6947C8.51299 12.863 9.37623 12.7819 10.1624 12.4614C10.9485 12.141 11.6225 11.5956 12.0998 10.8935C12.5771 10.1915 12.8364 9.36415 12.8453 8.51528C12.8498 7.94849 12.7406 7.38654 12.5242 6.86267C12.3078 6.3388 11.9885 5.86364 11.5853 5.46528C11.189 5.05986 10.7164 4.73682 10.1947 4.51475C9.67305 4.29268 9.11262 4.17596 8.54568 4.17131C7.97874 4.16666 7.41648 4.27418 6.89125 4.48767C6.36602 4.70116 5.8882 5.01641 5.48528 5.41528ZM10.1753 10.0953C9.79632 10.48 9.29549 10.7212 8.75841 10.7775C8.22132 10.8339 7.68134 10.7019 7.23079 10.4042C6.78023 10.1065 6.44708 9.66152 6.28829 9.14536C6.1295 8.62921 6.15493 8.07392 6.36024 7.57444C6.56555 7.07495 6.93798 6.6623 7.41387 6.40702C7.88975 6.15174 8.43953 6.06969 8.96922 6.1749C9.4989 6.28011 9.97559 6.56604 10.3178 6.98381C10.66 7.40158 10.8464 7.92525 10.8453 8.46528C10.8307 9.08255 10.5718 9.66881 10.1253 10.0953H10.1753Z" fill="#5C4D9F"/>
</svg>
