<svg width="20" height="20" viewBox="0 0 20 20" fill="none" xmlns="http://www.w3.org/2000/svg">
<path d="M19.0918 14.8201L17.009 12.695C16.561 12.2707 15.9958 11.9896 15.3862 11.8878C14.7766 11.786 14.1503 11.8681 13.5879 12.1236L12.6823 11.2214C13.7495 9.8009 14.2368 8.03038 14.0463 6.26627C13.8557 4.50217 13.0015 2.87546 11.6554 1.71363C10.3094 0.551796 8.57157 -0.0588983 6.79175 0.00448245C5.01193 0.0678632 3.32228 0.800613 2.06295 2.05523C0.803623 3.30984 0.0681184 4.99315 0.0044993 6.76631C-0.0591198 8.53947 0.553871 10.2708 1.72007 11.6118C2.88627 12.9528 4.51909 13.8038 6.28983 13.9937C8.06057 14.1835 9.83775 13.698 11.2636 12.6348L12.1591 13.527C11.8724 14.088 11.7697 14.7245 11.8654 15.3467C11.9611 15.9689 12.2503 16.5456 12.6924 16.9954L14.8255 19.1205C15.3915 19.6837 16.1587 20 16.9587 20C17.7586 20 18.5258 19.6837 19.0918 19.1205C19.3793 18.8404 19.6077 18.506 19.7637 18.1367C19.9197 17.7675 20 17.3709 20 16.9703C20 16.5697 19.9197 16.1731 19.7637 15.8039C19.6077 15.4347 19.3793 15.1002 19.0918 14.8201ZM10.5593 10.5698C9.85518 11.2695 8.95872 11.7456 7.98316 11.938C7.0076 12.1304 5.99669 12.0304 5.07814 11.6506C4.15959 11.2709 3.37462 10.6285 2.82237 9.80453C2.27012 8.98057 1.97538 8.01203 1.97538 7.02126C1.97538 6.0305 2.27012 5.06196 2.82237 4.238C3.37462 3.41403 4.15959 2.77161 5.07814 2.39188C5.99669 2.01216 7.0076 1.91216 7.98316 2.10453C8.95872 2.29689 9.85518 2.77299 10.5593 3.47268C11.0278 3.93827 11.3995 4.49136 11.6531 5.10028C11.9068 5.70921 12.0373 6.362 12.0373 7.02126C12.0373 7.68053 11.9068 8.33332 11.6531 8.94224C11.3995 9.55117 11.0278 10.1043 10.5593 10.5698ZM17.6731 17.657C17.5795 17.7509 17.4682 17.8255 17.3456 17.8764C17.223 17.9273 17.0915 17.9535 16.9587 17.9535C16.8258 17.9535 16.6943 17.9273 16.5717 17.8764C16.4491 17.8255 16.3378 17.7509 16.2443 17.657L14.1111 15.5318C14.0168 15.4387 13.942 15.3278 13.8909 15.2056C13.8398 15.0835 13.8135 14.9524 13.8135 14.8201C13.8135 14.6878 13.8398 14.5568 13.8909 14.4346C13.942 14.3125 14.0168 14.2016 14.1111 14.1084C14.2047 14.0144 14.316 13.9399 14.4386 13.889C14.5612 13.8381 14.6927 13.8119 14.8255 13.8119C14.9584 13.8119 15.0899 13.8381 15.2125 13.889C15.3351 13.9399 15.4464 14.0144 15.5399 14.1084L17.6731 16.2335C17.7674 16.3267 17.8422 16.4376 17.8933 16.5597C17.9444 16.6819 17.9707 16.8129 17.9707 16.9453C17.9707 17.0776 17.9444 17.2086 17.8933 17.3308C17.8422 17.4529 17.7674 17.5638 17.6731 17.657Z" fill="#5C4D9F"/>
</svg>
