<svg width="25" height="20" viewBox="0 0 25 20" fill="none" xmlns="http://www.w3.org/2000/svg">
<path d="M24.8715 2.36979C23.9652 2.77083 22.9965 3.04167 21.9756 3.16667C23.0173 2.54167 23.8194 1.55208 24.1944 0.375C23.2204 0.953125 22.1423 1.375 20.9913 1.59896C20.0694 0.614583 18.7569 0 17.309 0C14.5225 0 12.2673 2.26042 12.2673 5.04687C12.2673 5.44271 12.309 5.82812 12.3975 6.19792C8.20479 5.98958 4.48604 3.97917 2.00167 0.921875C1.56938 1.66667 1.31938 2.53646 1.31938 3.45833C1.31938 5.20833 2.21 6.75521 3.56417 7.66146C2.73604 7.64062 1.95479 7.41146 1.27771 7.03125C1.27771 7.05208 1.27771 7.07292 1.27771 7.09375C1.27771 9.54167 3.01729 11.5781 5.32458 12.0417C4.90271 12.1562 4.45479 12.2188 3.99646 12.2188C3.67354 12.2188 3.35584 12.1875 3.04854 12.125C3.68917 14.1302 5.55375 15.5885 7.76208 15.6302C6.03813 16.9844 3.86104 17.7917 1.49646 17.7917C1.09021 17.7917 0.689168 17.7656 0.293335 17.7188C2.5225 19.1667 5.17354 20 8.01729 20C17.2985 20 22.3715 12.3073 22.3715 5.63542C22.3715 5.41667 22.3663 5.19792 22.3558 4.98437C23.3402 4.27083 24.1944 3.38021 24.8715 2.36979Z" fill="#494178"/>
</svg>
