<svg width="22" height="19" viewBox="0 0 22 19" fill="none" xmlns="http://www.w3.org/2000/svg">
<path d="M0 10V15C0 15.2652 0.105357 15.5196 0.292893 15.7071C0.48043 15.8946 0.734784 16 1 16H2C2 16.7956 2.31607 17.5587 2.87868 18.1213C3.44129 18.6839 4.20435 19 5 19C5.79565 19 6.55871 18.6839 7.12132 18.1213C7.68393 17.5587 8 16.7956 8 16H14C14 16.7956 14.3161 17.5587 14.8787 18.1213C15.4413 18.6839 16.2044 19 17 19C17.7956 19 18.5587 18.6839 19.1213 18.1213C19.6839 17.5587 20 16.7956 20 16H21C21.2652 16 21.5196 15.8946 21.7071 15.7071C21.8946 15.5196 22 15.2652 22 15V3C22 2.20435 21.6839 1.44129 21.1213 0.87868C20.5587 0.316071 19.7956 0 19 0H10C9.20435 0 8.44129 0.316071 7.87868 0.87868C7.31607 1.44129 7 2.20435 7 3V5H5C4.53426 5 4.07493 5.10844 3.65836 5.31672C3.24179 5.525 2.87944 5.82741 2.6 6.2L0.2 9.4C0.170751 9.44347 0.147224 9.49052 0.13 9.54L0.0700001 9.65C0.0258661 9.76152 0.00215505 9.88008 0 10ZM16 16C16 15.8022 16.0586 15.6089 16.1685 15.4444C16.2784 15.28 16.4346 15.1518 16.6173 15.0761C16.8 15.0004 17.0011 14.9806 17.1951 15.0192C17.3891 15.0578 17.5673 15.153 17.7071 15.2929C17.847 15.4327 17.9422 15.6109 17.9808 15.8049C18.0194 15.9989 17.9996 16.2 17.9239 16.3827C17.8482 16.5654 17.72 16.7216 17.5556 16.8315C17.3911 16.9414 17.1978 17 17 17C16.7348 17 16.4804 16.8946 16.2929 16.7071C16.1054 16.5196 16 16.2652 16 16ZM9 3C9 2.73478 9.10536 2.48043 9.29289 2.29289C9.48043 2.10536 9.73478 2 10 2H19C19.2652 2 19.5196 2.10536 19.7071 2.29289C19.8946 2.48043 20 2.73478 20 3V14H19.22C18.9388 13.6906 18.5961 13.4435 18.2138 13.2743C17.8315 13.1052 17.418 13.0178 17 13.0178C16.582 13.0178 16.1685 13.1052 15.7862 13.2743C15.4039 13.4435 15.0612 13.6906 14.78 14H9V3ZM7 9H3L4.2 7.4C4.29315 7.2758 4.41393 7.175 4.55279 7.10557C4.69164 7.03615 4.84475 7 5 7H7V9ZM4 16C4 15.8022 4.05865 15.6089 4.16853 15.4444C4.27841 15.28 4.43459 15.1518 4.61732 15.0761C4.80004 15.0004 5.00111 14.9806 5.19509 15.0192C5.38907 15.0578 5.56725 15.153 5.70711 15.2929C5.84696 15.4327 5.9422 15.6109 5.98079 15.8049C6.01937 15.9989 5.99957 16.2 5.92388 16.3827C5.84819 16.5654 5.72002 16.7216 5.55557 16.8315C5.39112 16.9414 5.19778 17 5 17C4.73478 17 4.48043 16.8946 4.29289 16.7071C4.10536 16.5196 4 16.2652 4 16ZM2 11H7V13.78C6.40983 13.2526 5.63513 12.9797 4.84469 13.0209C4.05425 13.0621 3.31212 13.414 2.78 14H2V11Z" fill="#5C4D9F"/>
</svg>
